<?xml version="1.0" encoding="utf-8"?>
<svg viewBox="0 0 150 150" xmlns="http://www.w3.org/2000/svg">
  <defs/>
  <g transform="matrix(1.3079745769500732, 0, 0, 1.3079745769500732, -43.254947662353516, -28.389883041381832)">
    <g transform="matrix(1.4586336612701414, 0, 0, 1.4586336612701414, -41.435001373291016, -67.8813705444336)">
      <path d="M 85.90742492675781 61.06368637084961 C 86.94123077392578 42.95146942138672 118.98186492919922 66.69851684570312 126.68218231201172 53.306121826171875 C 127.54512786865234 51.805301666259766 127.15131378173828 67.6584243774414 116.59356689453125 62.88174819946289 C 102.57520294189453 56.539363861083984 87.95912170410156 60.277870178222656 86.05442810058594 61.16501235961914 C 85.86294555664062 61.25419616699219 85.90742492675781 61.06368637084961 85.90742492675781 61.06368637084961 Z " style="stroke: black; fill: rgb(255, 255, 255); stroke-width: 0px;" transform="matrix(1, 0, 0, 1, 0.43765443563460593, 20.678225153384098)"/>
      <path d="M 91.24980163574219 85.29570770263672 C 76.81578063964844 84.48641967773438 87.47718048095703 119.04067993164062 86.71527099609375 125.73677062988281 C 86.00505828857422 131.97850036621094 76.34658813476562 134.4526824951172 54.98844528198242 131.06820678710938 C 52.79701009826117 130.72094536105277 84.95735931396484 146.26458740234375 92.14684295654297 130.98695373535156 C 94.2868881225586 126.4393539428711 93.08714940051595 120.61105768495116 90.19992065429688 112.23094177246094 C 86.62714385986328 101.86103820800781 87.50462341308594 91.55386352539062 91.33538055419922 85.50115966796875 C 91.46648406982422 85.29401397705078 91.24980163574219 85.29570770263672 91.24980163574219 85.29570770263672 Z " style="stroke: black; fill: rgb(255, 255, 255); stroke-width: 0px;"/>
      <path d="M 84.93800354003906 23.73455238342285 C 68.12862396240234 22.131006240844727 72.12303161621094 52.60899353027344 72.72380065917969 57.70014953613281 C 73.79137420654297 66.74726867675781 74.80752950579095 77.07972687043484 73.62234497070312 83.53706359863281 C 72.2191162109375 91.18238830566406 64.90941388725555 88.83276726549269 59.311378479003906 86.48017883300781 C 54.50006866455078 84.45821380615234 48.771070623433914 104.58517358480321 65.67610931396484 105.27788543701172 C 79.78047180175781 105.8558349609375 83.62991333007812 99.39636993408203 81.26121520996094 84.96803283691406 C 77.21922302246094 60.347259521484375 78.07034301757812 29.487667083740234 85.0285873413086 23.99889373779297 C 85.3062744140625 23.779855728149414 84.93800354003906 23.73455238342285 84.93800354003906 23.73455238342285 Z " style="stroke: black; fill: rgb(255, 255, 255); stroke-width: 0px;" transform="matrix(0.6244377493858337, 0, 0, 0.6244377493858337, 29.182634560653895, 61.99958942399879)"/>
      <path d="M 75.32559967041016 120.38695526123047 C 75.0871353149414 119.31898498535156 71.35690409927122 122.30940001741473 67.06132507324219 119.71906280517578 C 66.14549255371094 119.16679382324219 66.46626281738281 122.35025024414062 67.24170684814453 123.19727325439453 C 70.41851170961169 126.6673197181038 76.24193572998047 124.49093627929688 75.32559967041016 120.38695526123047 Z " style="stroke: black; fill: rgb(0, 0, 0); stroke-width: 0px;"/>
      <path d="M 84.45072937011719 72.04666137695312 C 85.02552795410156 53.91407012939453 117.65725708007812 76.84210205078125 125.01596069335938 63.259002685546875 C 125.84062194824219 61.73680877685547 125.84839630126953 77.59481811523438 115.1730728149414 73.08704376220703 C 100.99858856201172 67.10169219970703 86.48187255859375 71.20913696289062 84.60025024414062 72.14422607421875 C 84.41108703613281 72.23823547363281 84.45072937011719 72.04666137695312 84.45072937011719 72.04666137695312 Z " style="stroke: black; fill: rgb(255, 255, 255); stroke-width: 0px;" transform="matrix(1, 0, 0, 1, -0.8247979941989172, 0)"/>
    </g>
  </g>
</svg>