<svg xmlns="http://www.w3.org/2000/svg" height="76px" width="76px" viewBox="0 0 500 500">
  <path fill="#FFF" d="M97.13 15.89l.215 468.35c54.486 15.572 315.946 58.28 304.527-253.25-9.794-267.183-265.72-233.203-304.74-215.1z"/>
  <path d="M159.894 272.722v-5.688h89.315v5.688h-7.533q-12.76 0-18.6 7.532-3.69 4.92-3.69 23.674v101.92q0 23.52-5.227 38.125-5.073 14.604-17.68 25.518-12.604 10.762-30.437 10.762-14.45 0-22.75-7.07-8.302-7.227-8.302-16.45 0-7.533 3.844-11.376 5.073-4.765 11.837-4.765 4.92 0 8.763 3.23 3.997 3.227 9.992 17.216 3.536 8.3 9.07 8.3 4.15 0 7.687-5.072 3.69-5.073 3.69-17.986v-142.35q0-15.834-2-20.907-1.537-3.842-6.456-6.61-6.61-3.688-13.99-3.688h-7.532z" font-size="66" font-family="Times New Roman" word-spacing="0"/>
  <path d="M219.245 75.923v81.937h37.97q13.067 0 19.062-5.688 6.15-5.842 8.148-22.906h5.688v70.56h-5.688q-.154-12.144-3.23-17.83-2.92-5.69-8.3-8.456-5.226-2.92-15.68-2.92h-37.97v65.486q0 15.834 1.998 20.907 1.538 3.843 6.457 6.61 6.764 3.69 14.143 3.69h7.532V273h-89.47v-5.687h7.38q12.913 0 18.755-7.533 3.69-4.92 3.69-23.674V101.442q0-15.834-2-20.907-1.536-3.843-6.302-6.61-6.61-3.69-14.143-3.69h-7.38V64.55h155.11l2 45.81h-5.38q-3.998-14.604-9.378-21.368-5.227-6.918-13.067-9.992-7.686-3.075-23.98-3.075h-45.965z" font-size="66" font-family="Times New Roman" word-spacing="0"/>
</svg>
